<svg id="svg2" xmlns:rdf="http://www.w3.org/1999/02/22-rdf-syntax-ns#" xmlns="http://www.w3.org/2000/svg" height="428.5" viewBox="0 0 2128.0344 428.50479" width="2128" version="1.1" xmlns:cc="http://creativecommons.org/ns#" xmlns:dc="http://purl.org/dc/elements/1.1/">
 <g id="g4282" transform="translate(-171.6 -47.815)">
  <g id="g4243" fill="#fff">
   <path id="path4144" style="color-rendering:auto;color:#000000;isolation:auto;mix-blend-mode:normal;shape-rendering:auto;solid-color:#000000;image-rendering:auto" d="m334.89 445.85c-3.1229-0.29869-5.9578-0.82287-6.2998-1.1649-0.34198-0.34198-0.6413-2.7481-0.66515-5.347l-0.0434-4.7252-4.6836-0.27134c-6.5134-0.37734-7.3675-1.6532-5.3633-8.0114 0.86961-2.7587 1.3597-5.2373 1.089-5.508-0.27067-0.27068-3.3611-0.69741-6.8676-0.9483s-6.3755-0.76649-6.3755-1.1458c0-0.37929 2.2045-5.1158 4.8989-10.526 5.7292-11.503 11.717-25.691 11.101-26.307-0.23604-0.23605-1.9966 0.60815-3.9125 1.876-5.1589 3.414-17.452 8.5282-25.361 10.551-8.5359 2.1831-22.154 2.3646-29.712 0.39599-8.9306-2.3261-19.283-8.3359-26.928-15.632-23.227-22.167-35.514-58.633-37.871-112.4-0.75813-17.289-0.71553-22.88 0.33445-43.889l0.35098-7.0227h-4.8002-4.8001l-7.1208-7.9295c-9.7791-10.89-10.646-11.954-10.147-12.453 0.23991-0.2399 6.1046 1.7668 13.033 4.4593l12.596 4.8955 1.2402 3.7207c0.81878 2.4563 2.1209 4.1762 3.8319 5.0609 1.4254 0.73709 2.7566 1.3402 2.9583 1.3402 0.20169 0 0.84841-5.6069 1.4372-12.46 0.58874-6.8528 1.2919-13.581 1.5626-14.952 0.48665-2.464 0.438-2.4925-4.3372-2.5402l-4.8293-0.0482-8.4134-10.492c-4.6274-5.7707-8.2254-10.68-7.9957-10.91 0.22971-0.22971 5.8722 1.906 12.539 4.746l12.121 5.1636 1.5452 4.2087c1.3889 3.7831 2.8345 5.1709 14.295 13.723l12.75 9.5147-0.51399 3.1716c-0.2827 1.7444-0.51848 9.4132-0.52397 17.042l-0.01 13.87-2.6906-1.5894c-1.4798-0.87415-2.988-1.2919-3.3516-0.9284-1.0519 1.0519 1.3511 37.058 3.3272 49.854 3.4769 22.515 8.8991 40.848 17.326 58.582 5.3799 11.322 16.252 27.895 21.895 33.378l4.0429 3.9278 3.9451-2.0126c5.5461-2.8294 10.782-6.3916 10.782-7.3355 0-0.4392-1.8084-3.0188-4.0187-5.7324-17.724-21.76-30.144-51.777-35.364-85.472-1.937-12.502-3.309-31.254-2.3564-32.207 0.42204-0.42205 1.5448-0.35129 2.4949 0.15721 1.6758 0.89684 1.7161 0.43759 1.3441-15.321-0.21089-8.9349-0.0655-16.245 0.32306-16.245 0.38857 0 2.097 1.0606 3.7966 2.3569 1.6995 1.2963 3.34 2.1069 3.6456 1.8014 0.66531-0.66531 1.7993-14.975 1.2317-15.542-0.21778-0.21778-1.9325-0.39597-3.8106-0.39597-6.784 0-11.664-3.2434-14.415-9.5812-2.3602-5.4371-3.9862-13.485-3.0525-15.11 0.43752-0.76113 3.1402-3.2871 6.0059-5.6133s5.2104-4.6602 5.2104-5.1867c0-1.3242-5.5175-0.21163-12.262 2.4725-8.1498 3.2433-10.781 3.5587-15.298 1.8338-5.4088-2.0657-16.963-14.315-12.085-12.811 0.62298 0.192 2.8657 0.5918 4.9839 0.88843l3.8512 0.53934v-3.1823c0-3.6212-0.0117-3.6257-4.9536-1.9228-9.7367 3.3551-17.704 5.2935-19.646 4.7796-1.1729-0.31043-3.7636-0.001-5.7571 0.68659-1.9936 0.68806-5.7687 1.8888-8.3893 2.6684-7.6175 2.266-9.8084 0.14171-4.7233-4.5797 1.5099-1.4019 4.4828-4.18 6.6066-6.1735 4.0864-3.8359 4.616-4.2707 12.42-10.2 2.7278-2.0725 6.0172-5.1109 7.3096-6.7518 2.9153-3.7015 15.679-14.093 31.178-25.383 30.265-22.046 49.274-30.67 67.962-30.83 13.705-0.11776 22.385 5.0667 22.782 13.607 0.14106 3.0305 0.54867 4.1908 1.3948 3.9704 0.65753-0.17134 2.5208-0.53052 4.1405-0.79818 2.4849-0.41063 2.945-0.20968 2.945 1.2863 0 0.97511 1.0194 2.7306 2.2654 3.9012 1.3093 1.23 2.2654 3.14 2.2654 4.5256 0 1.4328 1.2838 3.8973 3.1908 6.1251 2.893 3.3798 3.4896 3.6792 6.3927 3.2081 3.5037-0.56857 7.6336 1.086 7.6336 3.0583 0 2.0222 2.239 1.3526 4.9545-1.4817l2.5751-2.6878-3.4671-7.5065c-4.4165-9.5621-5.1746-16.289-2.253-19.991 4.5868-5.8123 15.689-8.6718 27.008-6.956 18.041 2.7347 33.344 10.137 58.627 28.359 15.908 11.465 24.854 18.578 32.622 25.938 7.3414 6.9559 13.895 12.476 19.256 16.22 1.6198 1.1312 2.945 2.6302 2.945 3.3311 0 0.70085 1.1873 1.8882 2.6385 2.6387 2.5503 1.3188 6.4231 5.4568 6.4231 6.8628 0 2.3563-7.8068 1.2172-16.073-2.3452-1.6133-0.69528-4.0825-1.0343-5.4871-0.75338-2.097 0.41941-16.628-3.1023-23.189-5.62-0.88865-0.34101-1.4887 0.3943-1.9184 2.351-0.34394 1.566-0.42454 3.048-0.17911 3.2935 0.24543 0.24543 2.527 0.068 5.0701-0.39417 5.377-0.97731 5.6963-0.39951 2.2651 4.099-3.47 4.5494-9.0421 8.2376-13.442 8.8974-3.0853 0.46268-5.2313 0.0358-10.573-2.1033-3.6864-1.4761-8.5371-2.955-10.779-3.2864l-4.0768-0.60258 6.1166 5.7528c4.9831 4.6868 6.1166 6.2702 6.1166 8.5448 0 3.5701-3.1161 13.664-5.0772 16.447-2.055 2.9158-8.1363 5.5215-12.943 5.5455l-3.9744 0.0199 0.57626 4.2042c0.31693 2.3123 0.57624 6.2214 0.57624 8.6869v4.4827l3.8117-2.8031c3.3914-2.494 3.9046-2.637 4.6547-1.2968 0.49881 0.89131 0.58162 7.6462 0.20284 16.544-0.51729 12.15-0.41928 14.82 0.51044 13.905 0.63284-0.62298 1.7247-1.1327 2.4264-1.1327 1.0529 0 1.1712 1.6228 0.67706 9.2882-2.8868 44.785-15.391 80.875-37.819 109.15l-4.4606 5.624 3.8978 2.8546c2.1438 1.57 5.6688 3.7263 7.8333 4.7918l3.9355 1.9372 4.4627-4.9788c11.836-13.205 22.537-33.023 29.844-55.271 7.1961-21.909 10.452-41.749 11.438-69.7 0.6381-18.081 0.95146-16.842-3.7772-14.929-1.159 0.46899-1.3592-0.91273-1.3592-9.378 0-5.4604-0.25838-12.985-0.57417-16.72l-0.57417-6.7924 12.581-9.5016c11.006-8.3125 12.766-10.003 14.061-13.506 1.4685-3.9741 1.5719-4.0451 13.476-9.2562 6.5978-2.8883 12.211-5.0363 12.474-4.7733 0.26294 0.26294-1.1118 2.4605-3.0551 4.8835-14.628 18.24-12.717 16.468-17.767 16.468h-4.5536l0.59562 5.6635c0.32759 3.1149 0.92688 9.6474 1.3317 14.517 0.40487 4.8692 1.0066 9.1235 1.3371 9.454 1.0608 1.0608 5.395-2.9075 6.3974-5.8574 0.53359-1.5703 1.378-3.2475 1.8763-3.7272 1.2408-1.1941 25.077-10.226 25.602-9.7008 0.23159 0.2316-3.576 4.93-8.4613 10.441l-8.8824 10.02h-4.63-4.63l0.38901 24.066c0.70244 43.457-3.8199 76.06-14.194 102.33-9.4868 24.024-23.622 40.756-41.375 48.975-8.1586 3.7772-13.944 4.9534-24.366 4.9534-11.316 0-20.266-2.3865-33.402-8.9071-5.8561-2.9069-10.647-4.9557-10.647-4.5529 0 1.7911 4.7927 13.085 10.251 24.158 3.7835 7.6746 5.5533 12.18 4.8691 12.395-0.59124 0.18558-3.4192 0.50214-6.2843 0.70349-2.8652 0.20135-5.4501 0.60678-5.7442 0.90094-0.29416 0.29417-0.029 2.795 0.58917 5.5575 1.4367 6.4199 0.56795 7.6174-5.7937 7.986l-4.6836 0.27134 0.30242 4.657c0.20606 3.1729-0.0827 4.8989-0.90616 5.4162-1.859 1.1679-10.543 1.7675-16.854 1.1638zm14.161-66.889c9.8712-7.9009 27.274-25.619 33.898-34.511 5.9188-7.9464 13.451-20.849 12.792-21.915-0.70618-1.1426-109.77-0.93743-110.47 0.20786-0.80311 1.2994 5.8532 12.704 13.039 22.341 7.3003 9.79 23.326 26.053 33.63 34.127 4.223 3.3092 8.0402 6.0168 8.4826 6.0168 0.44245 0 4.3272-2.8196 8.6327-6.2658zm53.116-68.719c1.8327-4.3609 4.3071-11.599 5.4987-16.084 2.0202-7.6041 4.9428-22.677 4.9428-25.491 0-1.0396-11.748-1.2405-72.534-1.2405h-72.534l0.55933 3.3981c2.8399 17.254 6.5303 31.135 10.723 40.336l3.195 7.0109h58.408 58.408l3.3321-7.9289zm11.463-53.237c2.9874-23.831 3.0566-54.358 0.12577-55.483-0.76623-0.29403-1.8773-0.16388-2.469 0.28923-5.0964 3.9026-10.954 7.0727-15.895 8.602-15.862 4.9097-36.744 2.2819-50.853-6.3992l-4.328-2.6631-5.2578 3.1661c-19.098 11.5-47.446 11.006-63.338-1.1044-3.4048-2.5947-4.5488-2.6708-5.7726-0.38409-1.8242 3.4086-0.78143 43.92 1.442 56.02l0.54213 2.9504 72.618-0.23191 72.618-0.23191 0.56796-4.5308zm-108.82-55.95l2.6811-5.6635-7.8127-0.26341c-7.696-0.25948-21.245 2.2249-23.291 4.2707-2.0309 2.0309 12.934 7.0971 21.399 7.2443l4.3427 0.0755 2.6811-5.6635v0.00001zm87.384 4.2715c2.9392-0.76557 7.2046-2.218 9.4785-3.2277 3.5089-1.558 3.8955-1.9706 2.5552-2.7272-6.3802-3.6011-26.607-5.6319-36.01-3.6154-7.9052 1.6954-18.664 7.0884-14.742 7.3898 0.37379 0.0287 3.534 0.82077 7.0227 1.7601 8.1174 2.1856 24.104 2.3976 31.695 0.42035zm-36.549-22.437c-1.7604-1.8885-3.0584-2.4654-5.0973-2.2654-2.4679 0.24208-2.722 0.55998-2.5978 3.2507 0.0758 1.6403 0.38158 3.9542 0.6797 5.142l0.54203 2.1596 4.4176-2.8766 4.4176-2.8766-2.3619-2.5337zm-90.233 0.20749c2.9573-0.53184 8.639-1.9885 12.626-3.2371 9.8071-3.0711 21.04-3.7748 27.992-1.7537 2.9027 0.84385 5.3876 1.4082 5.522 1.2541 0.13436-0.15409 1.11-1.997 2.168-4.0952 2.3197-4.6004 2.4117-6.8309 0.40783-9.8892-1.6513-2.5202-2.1511-10.297-0.88661-13.797 0.68089-1.8843 0.551-2.0591-1.1327-1.5247-1.0706 0.33982-1.9018 0.20552-1.9018-0.3073 0-0.501-0.71361-0.85956-1.5858-0.7968-2.5772 0.18544-9.0881-4.6922-10.087-7.5563-0.8137-2.3342-1.369-2.6506-4.818-2.7455-2.1441-0.059-4.3061 0.003-4.8045 0.13797-0.49839 0.1349-1.6198 0.27057-2.492 0.30149-0.87218 0.0309-1.5858 0.3212-1.5858 0.64508 0 1.0743-7.8589 3.6105-9.3796 3.0269-1.4896-0.5716-1.833-1.7991-1.5407-5.5061 0.25436-3.2255-4.4025-3.6753-8.8677-0.85652-1.9908 1.2568-3.882 2.7093-4.2025 3.2279-0.3205 0.51859-1.1791 0.94288-1.9079 0.94288-0.72885 0-2.8591 1.0151-4.7339 2.2558s-5.4341 2.5235-7.9095 2.8507c-2.4754 0.32718-5.602 1.3644-6.948 2.3049-2.7462 1.9189-10.081 4.344-13.184 4.3589-2.844 0.0137-2.5423 1.5152 0.63462 3.1581 3.363 1.7391 5.6619 1.735 13.244-0.0233 3.334-0.77322 7.2323-1.1488 8.6627-0.83461 4.9426 1.0856 13.434 14.321 12.063 18.802-0.33885 1.1079-1.9932 3.9512-3.6764 6.3186l-3.0603 4.3043h3.0036c1.652 0 5.4232-0.43514 8.3805-0.96699zm160.15-0.18289c-0.39855-0.63243-1.8998-2.8746-3.3361-4.9825-3.4927-5.126-2.966-9.1117 2.1721-16.437 5.0445-7.1914 7.6004-8.1004 16.732-5.95 7.3927 1.741 12.064 1.3261 14.423-1.2808 1.448-1.6 1.333-1.6937-2.6286-2.1402-2.2786-0.25683-6.6759-1.69-9.7719-3.1848s-7.3477-2.9729-9.4482-3.2846c-2.1006-0.3117-5.3177-1.5836-7.1492-2.8265s-3.8261-2.2598-4.4325-2.2598c-0.60636 0-3.01-1.4565-5.3415-3.2368-3.4303-2.6192-4.742-3.1263-6.8754-2.6577-2.2369 0.49131-2.6785 1.0709-2.914 3.8246-0.40931 4.785-2.3281 5.5272-7.6425 2.9564-2.4283-1.1747-4.7639-2.0443-5.1902-1.9325-0.42625 0.11184-1.2418-0.14882-1.8123-0.57926-0.57053-0.43044-2.9742-0.60757-5.3416-0.39363-3.4671 0.31333-4.3043 0.71961-4.3043 2.089 0 1.844-8.371 8.9914-10.531 8.9914-0.71848 0-1.5481-0.63004-1.8436-1.4001-0.45487-1.1854-0.7313-1.123-1.8027 0.40661-1.0221 1.4592-2.1711 1.7721-5.9742 1.6266l-4.7088-0.18007-1.0928 3.6246c-1.5228 5.051-1.4685 8.7274 0.18739 12.691 0.9589 2.295 1.2224 4.5639 0.81195 6.9931-0.54519 3.227-0.30557 3.9074 2.3361 6.6328l2.9436 3.037 3.4951-1.783c9.755-4.9766 22.151-5.5804 34.724-1.6914 13.278 4.1071 25.895 5.8336 24.316 3.3274zm-98.137-64.033c0-0.46481-0.80984-1.1021-1.7997-1.4163-0.98981-0.31416-3.0287-1.8002-4.5308-3.3023-1.6882-1.6882-2.7311-2.2384-2.7311-1.4408 0 1.9994 3.2135 5.2301 6.0485 6.0807 1.408 0.42246 2.662 0.80316 2.7866 0.84599 0.1246 0.0428 0.22654-0.3024 0.22654-0.7672zm7.318-2.6512c-1.1062-2.0669-4.9336-4.6591-6.8791-4.6591-1.1252 0-0.91202 0.68858 0.98183 3.1716 1.5882 2.0823 3.1711 3.1716 4.6088 3.1716 1.8533 0 2.0513-0.25872 1.2885-1.684z"/>
   <path id="path4146" style="color-rendering:auto;color:#000000;isolation:auto;mix-blend-mode:normal;shape-rendering:auto;solid-color:#000000;image-rendering:auto" d="m308.44 257.98c-1.2209-0.6761-2.7332-1.0322-3.3607-0.79144-1.9382 0.74377-7.4399-1.5557-9.2609-3.8707-0.9517-1.2099-2.6205-2.1998-3.7085-2.1998-2.8864 0-7.2757-4.7563-7.2757-7.8841 0-1.4226-0.65089-3.5158-1.4464-4.6516-1.0648-1.5202-1.3004-3.1873-0.893-6.3182 0.30438-2.3392 0.54032-5.746 0.52431-7.5706-0.0337-3.8379 1.8888-6.1973 5.0496-6.1973 2.4004 0 8.8922 5.5532 10.677 9.1334 1.6097 3.2287 5.0456 4.077 10.862 2.6816 2.7171-0.65183 5.936-0.93522 7.1531-0.62975 11.178 2.8054 13.399 20.737 3.414 27.553-3.3827 2.309-8.3425 2.624-11.735 0.74536z"/>
   <path id="path4148" style="color-rendering:auto;color:#000000;isolation:auto;mix-blend-mode:normal;shape-rendering:auto;solid-color:#000000;image-rendering:auto" d="m340.57 257.13c-1.2763-0.93328-1.4896-1.8842-1.0037-4.4746 0.59172-3.1541 0.47637-3.3482-2.8046-4.7191-1.8819-0.78632-4.2929-2.2481-5.3577-3.2485-2.288-2.1494-5.4269-8.7286-4.5722-9.5833 0.81256-0.81256 4.4772 1.2462 8.7911 4.9387 3.7555 3.2146 4.465 2.6458 2.651-2.1253-1.0813-2.8439-1.1951-2.6653 2.2225-3.4875 2.242-0.53934 2.4832-0.43638 1.5663 0.66847-0.78297 0.94341-0.82609 1.984-0.15534 3.7482l0.92854 2.4423 2.9764-3.9023c2.9401-3.8548 7.3167-7.0758 8.2908-6.1017 0.276 0.276-0.15059 2.4165-0.94796 4.7567-1.5106 4.4332-5.9033 9.6449-8.1293 9.6449-0.9818 0-1.2895 1.3928-1.2895 5.8366 0 6.305-0.64612 7.4491-3.1661 5.6065z"/>
   <path id="path4150" style="color-rendering:auto;color:#000000;isolation:auto;mix-blend-mode:normal;shape-rendering:auto;solid-color:#000000;image-rendering:auto" d="m341.92 234.47c0-0.18833 0.65425-1.9082 1.4539-3.822 2.029-4.8562 1.3607-13.064-1.3637-16.749-1.9811-2.6795-1.9961-2.8326-0.39507-4.0334 1.4201-1.0651 1.8117-1.0549 2.6702 0.0693 0.55333 0.72459 1.9061 1.3174 3.0061 1.3174 1.5721 0 1.8798 0.37892 1.4379 1.771-0.32033 1.0093 0.091 2.7678 0.9564 4.0886 1.1316 1.727 1.4102 3.6236 1.0935 7.4428-0.35969 4.3374-0.86651 5.5197-3.2972 7.6915-2.4261 2.1678-5.562 3.4216-5.562 2.2238z"/>
   <path id="path4152" style="color-rendering:auto;color:#000000;isolation:auto;mix-blend-mode:normal;shape-rendering:auto;solid-color:#000000;image-rendering:auto" d="m334.14 234.43c-4.5898-1.9984-6.7194-5.4959-6.7194-11.036 0-4.0747 0.42519-5.3144 2.7185-7.9263 1.4952-1.7029 2.7185-3.7178 2.7185-4.4775 0-0.93642 0.58528-1.2283 1.8171-0.90613 0.99944 0.26136 2.3982-0.007 3.1084-0.59642 1.0276-0.85281 1.4847-0.71004 2.2389 0.69918 0.77633 1.4506 0.62171 1.8561-0.85509 2.2422-4.3109 1.1273-6.0708 13.9-2.6813 19.46 2.6631 4.3679 2.4299 4.6205-2.3456 2.5412z"/>
   <path id="path4154" style="color-rendering:auto;color:#000000;isolation:auto;mix-blend-mode:normal;shape-rendering:auto;solid-color:#000000;image-rendering:auto" d="m361.14 257.33c-8.6466-5.5366-8.6996-20.082-0.0946-26.003 2.5686-1.7674 3.7559-2.0189 7.1572-1.5163 10.825 1.5996 10.931 1.5994 12.731-0.0304 0.97189-0.87955 1.7701-2.0457 1.7739-2.5914 0.0126-1.8326 7.8034-8.6946 9.8714-8.6946 4.4952 0 7.2042 3.2083 5.4604 6.4667-0.6041 1.1288-0.64967 2.2071-0.1217 2.8794 1.7193 2.1891 2.0458 6.1424 0.74655 9.0385-0.71807 1.6006-1.5592 4.4148-1.8691 6.2537-0.63824 3.7867-4.8731 7.9835-8.0558 7.9835-1.0878 0-2.4792 0.80272-3.0919 1.7838-1.5237 2.4398-6.015 4.6284-9.0482 4.4092-1.3788-0.0997-3.3976 0.30112-4.4862 0.89063-3.0052 1.6274-7.6481 1.2593-10.973-0.86997z"/>
   <path id="path4156" style="color-rendering:auto;color:#000000;isolation:auto;mix-blend-mode:normal;shape-rendering:auto;solid-color:#000000;image-rendering:auto" d="m337.82 310.72c-2.7478-4.1522-2.8359-4.5222-1.9331-8.1192 0.53736-2.141 0.26297-2.518-2.495-3.4282-4.8553-1.6024-5.3861-2.7734-3.7519-8.2764 1.7439-5.8724 1.7472-6.246 0.0551-6.246-0.9837 0-1.3592-1.0105-1.3592-3.6572v-3.6572l7.4279-3.592c10.324-4.9927 13.145-4.8132 15.57 0.99071 1.5999 3.8292 4.1869 17.067 4.1869 21.425 0 2.3694 0.67577 3.7462 2.7185 5.5386 3.218 2.8238 3.3232 3.4068 0.85301 4.7288-2.7722 1.4837-7.153 0.20311-8.1342-2.3778-1.0375-2.7287-4.7638-3.1085-4.3293-0.44127 0.27125 1.665-4.5515 10.891-5.7127 10.928-0.30756 0.01-1.7008-1.7071-3.096-3.8154z"/>
   <path id="path4158" style="color-rendering:auto;color:#000000;isolation:auto;mix-blend-mode:normal;shape-rendering:auto;solid-color:#000000;image-rendering:auto" d="m335.03 336.83c-0.27072-0.70548-0.35986-2.4385-0.1981-3.8512 0.29337-2.562 0.31287-2.5692 7.6944-2.8305l7.4003-0.26197v4.1132 4.1132h-7.2022c-5.375 0-7.3271-0.32541-7.6944-1.2827z"/>
   <path id="path4160" style="color-rendering:auto;color:#000000;isolation:auto;mix-blend-mode:normal;shape-rendering:auto;solid-color:#000000;image-rendering:auto" d="m327.87 343.52c-0.32058-1.01-1.5679-2.4819-2.7718-3.2707-1.2039-0.78882-1.9644-1.7974-1.6901-2.2413 0.80634-1.3047 8.0459-0.92424 9.9598 0.52338 1.32 0.99838 4.5448 1.3376 12.921 1.3592l11.162 0.0288-1.9357 2.7185-1.9357 2.7185h-12.563c-11.823 0-12.598-0.10829-13.146-1.8365z"/>
   <path id="path4166" style="color-rendering:auto;color:#000000;isolation:auto;mix-blend-mode:normal;shape-rendering:auto;solid-color:#000000;image-rendering:auto" d="m335.99 366.17c-0.90672-0.30292-1.2252-1.375-1.1568-2.2428-0.14539-2.4123-0.15577-4.845 0.1924-7.2414 0.48499-0.94077 1.687-1.119 2.6386-0.98367 3.5943-0.044 7.189-0.0378 10.783-0.003 0.87212-0.41809 2.0056 0.58096 1.6565 1.497-0.49103 2.5855-0.5698 5.2842 0.058 7.8539 0.0239 0.90153-0.99837 1.5204-1.8213 1.3118-4.1152-0.16761-8.2411 0.14809-12.351-0.19185z"/>
   <path id="path4168" style="color-rendering:auto;color:#000000;isolation:auto;mix-blend-mode:normal;shape-rendering:auto;solid-color:#000000;image-rendering:auto" d="m334.25 371.59c-1.9856-0.5784-3.9685-1.608-5.1276-3.3838-1.2182-0.73789-0.0587-2.9226 1.2359-2.3778 1.2157 0.25102 2.9095-0.0808 3.5863 1.2503 0.89043 1.373 2.644 2.0799 4.2353 1.6993 4.7544-0.20905 9.5166 0.14169 14.269-0.14511 1.2803-0.67568 1.4539-2.6281 3.0101-2.9032 1.5582-0.34229 2.8052 1.9507 1.6301 3.0519-1.6558 2.436-4.8536 3.2844-7.6562 2.9309-5.0604-0.11055-10.124 0.0806-15.183-0.12247z"/>
  </g>
  <rect id="rect4256" style="color-rendering:auto;color:#000000;isolation:auto;mix-blend-mode:normal;shape-rendering:auto;solid-color:#000000;image-rendering:auto" height="184.22" width="33.96" y="47.815" x="588.53" fill="#fbd000"/>
  <rect id="rect4258" style="color-rendering:auto;color:#000000;isolation:auto;mix-blend-mode:normal;shape-rendering:auto;solid-color:#000000;image-rendering:auto" height="122.14" width="33.96" y="232.03" x="588.53" fill="#00549f"/>
  <rect id="rect4260" style="color-rendering:auto;color:#000000;isolation:auto;mix-blend-mode:normal;shape-rendering:auto;solid-color:#000000;image-rendering:auto" height="122.14" width="33.96" y="354.18" x="588.53" fill="#d21a3a"/>
  <g id="g4274" fill="#fff">
   <path id="path4262" style="color-rendering:auto;color:#000000;isolation:auto;mix-blend-mode:normal;shape-rendering:auto;solid-color:#000000;image-rendering:auto" d="m831.16 413.31c-47.823-8.0267-84.653-34.754-103.96-75.441-12.158-25.623-15.582-44.195-14.475-78.52 0.97935-30.377 3.8681-44.236 13.774-66.084 13.023-28.722 36.937-53.719 64.258-67.166 26.146-12.869 40.385-15.959 73.64-15.979 25.448-0.0154 29.626 0.44928 44.402 4.9382 19.538 5.9355 39.089 16.143 54.675 28.545l11.453 9.1137-14.035 15.243c-7.7191 8.3836-14.743 15.249-15.608 15.257-0.8652 0.008-4.4882-2.5453-8.0512-5.6736-9.6575-8.4794-33.768-19.315-50.182-22.553-46.597-9.1915-93.608 11.755-114.53 51.029-17.94 33.679-18.787 78.698-2.1234 112.88 11.177 22.931 36.638 42.538 63.606 48.982 33.674 8.0464 72.573 1.1433 96.531-17.13l6.3532-4.8459v-29.688-29.688h-40.835-40.835l0.5106-21.295 0.51059-21.295h62.525 62.525l0.47831 59.719 0.47831 59.719-8.6338 8.8819c-19.436 19.994-45.841 34.421-73.348 40.074-14.938 3.0701-53.387 3.611-69.108 0.97229z"/>
   <path id="path4264" style="color-rendering:auto;color:#000000;isolation:auto;mix-blend-mode:normal;shape-rendering:auto;solid-color:#000000;image-rendering:auto" d="m1132.6 412.61c-59.072-12.292-99.916-54.903-111.51-116.33-4.0615-21.52-2.7444-59.196 2.7371-78.295 18.811-65.542 69.216-104.95 138.74-108.47 79.328-4.0149 139.63 42.93 154.12 119.98 4.5568 24.237 2.9543 61.397-3.5931 83.322-7.86 26.321-17.573 42.82-36.405 61.839-14.095 14.235-18.752 17.673-33.528 24.751-9.4377 4.5211-22.46 9.6124-28.94 11.314-15.908 4.1777-65.148 5.3189-81.618 1.8916zm63.716-43.502c33.472-7.0949 59.822-31.536 70.461-65.355 5.4663-17.377 6.8496-49.372 2.931-67.792-9.1739-43.122-38.333-73.259-78.278-80.901-60.78-11.629-111.24 20.899-123.01 79.295-12.748 63.258 18.675 121.42 72.659 134.49 13.825 3.3467 40.098 3.4723 55.234 0.26394z"/>
   <path id="path4266" style="color-rendering:auto;color:#000000;isolation:auto;mix-blend-mode:normal;shape-rendering:auto;solid-color:#000000;image-rendering:auto" d="m1390.2 264.34c-34.282-82.988-62.214-151.7-62.072-152.7 0.159-1.1146 10.549-1.8123 26.988-1.8123h26.73l48.028 122.67c26.416 67.467 48.532 122.11 49.148 121.43 0.6158-0.68288 21.28-52.621 45.921-115.42 24.641-62.797 46.315-117.64 48.164-121.88l3.3626-7.7024h26.38c19.128 0 26.381 0.59054 26.381 2.1482 0 1.1815-21.724 54.804-48.276 119.16-26.552 64.357-54.495 132.1-62.095 150.54l-13.819 33.528-26.255 0.46513-26.255 0.46513-62.331-150.89z"/>
   <path id="path4268" style="color-rendering:auto;color:#000000;isolation:auto;mix-blend-mode:normal;shape-rendering:auto;solid-color:#000000;image-rendering:auto" d="m1614.7 411.13c-13.334-9.0753-17.676-23.276-11.812-38.631 8.1642-21.378 39.96-24.783 54.113-5.7948 5.7452 7.7078 6.3465 24.484 1.2056 33.631-8.0713 14.361-30.2 19.852-43.507 10.795z"/>
   <path id="path4270" style="color-rendering:auto;color:#000000;isolation:auto;mix-blend-mode:normal;shape-rendering:auto;solid-color:#000000;image-rendering:auto" d="m1806.8 411.69c-28.492-6.023-53.683-19.424-72.606-38.623-16.686-16.93-27.369-35.705-35.528-62.442-4.4064-14.44-4.8756-18.76-4.9803-45.846-0.1213-31.397 1.4416-41.175 10.139-63.431 14.774-37.807 47.341-69.66 84.394-82.546 56.135-19.522 120.33-8.729 158.86 26.708l9.241 8.4997-14.966 15.06c-16.933 17.04-12.929 16.698-33.567 2.8619-5.5469-3.7189-16.469-8.9839-24.272-11.7-12.514-4.3562-16.857-4.9383-36.84-4.9383-19.984 0-24.326 0.5821-36.841 4.9383-18.119 6.3073-30.506 14.285-42.39 27.299-19.093 20.91-29.201 52.075-27.095 83.545 1.9378 28.965 12.055 52.91 29.787 70.502 19.243 19.09 44.874 28.759 76.538 28.873 26.955 0.0968 52.651-8.6533 71.744-24.431l8.6595-7.1558 16.433 16.534 16.433 16.534-6.3432 5.5306c-19.685 17.164-44.725 29.415-71.587 35.026-17.816 3.7215-55.734 3.3188-75.211-0.79861z"/>
   <path id="path4272" style="color-rendering:auto;color:#000000;isolation:auto;mix-blend-mode:normal;shape-rendering:auto;solid-color:#000000;image-rendering:auto" d="m2113.1 412.51c-50.514-10.079-88.673-43.706-104.94-92.471-7.5474-22.629-9.8552-39.661-8.716-64.322 2.1481-46.498 20.606-85.675 53.122-112.75 12.432-10.352 38.448-23.532 54.49-27.605 26.337-6.6867 60.911-6.7436 86.69-0.14273 15.006 3.8424 41.541 17.279 53.209 26.943 67.194 55.657 70.786 176.95 6.9894 236.06-19.592 18.152-41.529 28.959-69.872 34.422-16.339 3.1494-54.898 3.08-70.974-0.12777v-0.00004zm63.898-43.463c48.163-10.206 78.675-55.548 75.021-111.48-2.1075-32.257-11.949-56.151-31.087-75.478-18.892-19.078-41.636-27.967-71.773-28.05-50.289-0.13883-85.816 26.649-98.968 74.624-2.3249 8.4804-3.1655 18.058-3.0905 35.209 0.09 20.496 0.7324 25.464 4.9415 38.201 8.1247 24.584 24.511 45.557 44.956 57.539 18.761 10.995 53.377 15.078 80.001 9.4356z"/>
  </g>
 </g>
</svg>
